<svg width="358" height="371" viewBox="0 0 358 371" fill="none" xmlns="http://www.w3.org/2000/svg">
<g clip-path="url(#clip0_2_39)">
<rect width="1920" height="1080" transform="translate(-1562 -130)" fill="white"/>
<path d="M405 274.5C405 326.067 362.092 368 309 368C255.908 368 213 326.067 213 274.5C213 222.933 255.908 181 309 181C362.092 181 405 222.933 405 274.5Z" stroke="#8A80FA" stroke-width="6"/>
<path d="M304.5 154C304.5 236.553 237.356 303.5 154.5 303.5C71.6435 303.5 4.5 236.553 4.5 154C4.5 71.4472 71.6435 4.5 154.5 4.5C237.356 4.5 304.5 71.4472 304.5 154Z" fill="#8A80FA" stroke="#8A80FA" stroke-width="9"/>
</g>
<defs>
<clipPath id="clip0_2_39">
<rect width="1920" height="1080" fill="white" transform="translate(-1562 -130)"/>
</clipPath>
</defs>
</svg>
