<svg width="91" height="90" viewBox="0 0 91 90" fill="none" xmlns="http://www.w3.org/2000/svg">
<ellipse cx="45.5" cy="45" rx="45.5" ry="45" fill="#8A80FA"/>
<mask id="path-2-inside-1_8_37" fill="white">
<path d="M11.375 40.0645H79.625V40.7782C79.625 59.6249 64.3467 74.9032 45.5 74.9032C26.6533 74.9032 11.375 59.6249 11.375 40.7782V40.0645Z"/>
</mask>
<path d="M11.375 40.0645H79.625H11.375ZM79.625 45.7782C79.625 64.6249 64.3467 79.9032 45.5 79.9032C26.6533 79.9032 11.375 64.6249 11.375 45.7782V40.7782C11.375 56.8635 26.6533 69.9032 45.5 69.9032C64.3467 69.9032 79.625 56.8635 79.625 40.7782V45.7782ZM11.375 74.9032V40.0645V74.9032ZM79.625 40.0645V74.9032V40.0645Z" fill="white" mask="url(#path-2-inside-1_8_37)"/>
</svg>
