<svg width="72" height="62" viewBox="0 0 72 62" fill="none" xmlns="http://www.w3.org/2000/svg">
<g filter="url(#filter0_d_741_3247)">
<ellipse cx="28.0202" cy="30" rx="24.0202" ry="24" fill="white"/>
<path d="M47.611 30.0001C47.611 40.8088 38.8411 49.5732 28.0201 49.5732C17.1992 49.5732 8.4292 40.8088 8.4292 30.0001C8.4292 19.1913 17.1992 10.4269 28.0201 10.4269C38.8411 10.4269 47.611 19.1913 47.611 30.0001Z" fill="white" stroke="#8A80FA" stroke-width="3"/>
<path d="M64.7728 35.8537C64.7728 42.8765 59.0743 48.5732 52.0404 48.5732C45.0066 48.5732 39.3081 42.8765 39.3081 35.8537C39.3081 28.8309 45.0066 23.1342 52.0404 23.1342C59.0743 23.1342 64.7728 28.8309 64.7728 35.8537Z" fill="#8A80FA" stroke="white" stroke-width="5"/>
</g>
<defs>
<filter id="filter0_d_741_3247" x="0" y="6" width="71.2729" height="56" filterUnits="userSpaceOnUse" color-interpolation-filters="sRGB">
<feFlood flood-opacity="0" result="BackgroundImageFix"/>
<feColorMatrix in="SourceAlpha" type="matrix" values="0 0 0 0 0 0 0 0 0 0 0 0 0 0 0 0 0 0 127 0" result="hardAlpha"/>
<feOffset dy="4"/>
<feGaussianBlur stdDeviation="2"/>
<feComposite in2="hardAlpha" operator="out"/>
<feColorMatrix type="matrix" values="0 0 0 0 0 0 0 0 0 0 0 0 0 0 0 0 0 0 0.25 0"/>
<feBlend mode="normal" in2="BackgroundImageFix" result="effect1_dropShadow_741_3247"/>
<feBlend mode="normal" in="SourceGraphic" in2="effect1_dropShadow_741_3247" result="shape"/>
</filter>
</defs>
</svg>
