<svg width="72" height="56" viewBox="0 0 72 56" fill="none" xmlns="http://www.w3.org/2000/svg">
    <g filter="url(#filter0_d_101_161)">
        <ellipse cx="28.0202" cy="24" rx="24.0202" ry="24" fill="white"/>
        <path d="M47.611 23.9999C47.611 34.8087 38.8411 43.5731 28.0201 43.5731C17.1992 43.5731 8.4292 34.8087 8.4292 23.9999C8.4292 13.1912 17.1992 4.42676 28.0201 4.42676C38.8411 4.42676 47.611 13.1912 47.611 23.9999Z"
              fill="white" stroke="#8A80FA" stroke-width="3"/>
        <path d="M64.7728 29.8535C64.7728 36.8764 59.0743 42.5731 52.0404 42.5731C45.0066 42.5731 39.3081 36.8764 39.3081 29.8535C39.3081 22.8307 45.0066 17.134 52.0404 17.134C59.0743 17.134 64.7728 22.8307 64.7728 29.8535Z"
              fill="#8A80FA" stroke="white" stroke-width="5"/>
    </g>
    <defs>
        <filter id="filter0_d_101_161" x="0" y="0" width="71.2729" height="56" filterUnits="userSpaceOnUse"
                color-interpolation-filters="sRGB">
            <feFlood flood-opacity="0" result="BackgroundImageFix"/>
            <feColorMatrix in="SourceAlpha" type="matrix" values="0 0 0 0 0 0 0 0 0 0 0 0 0 0 0 0 0 0 127 0"
                           result="hardAlpha"/>
            <feOffset dy="4"/>
            <feGaussianBlur stdDeviation="2"/>
            <feComposite in2="hardAlpha" operator="out"/>
            <feColorMatrix type="matrix" values="0 0 0 0 0 0 0 0 0 0 0 0 0 0 0 0 0 0 0.25 0"/>
            <feBlend mode="normal" in2="BackgroundImageFix" result="effect1_dropShadow_101_161"/>
            <feBlend mode="normal" in="SourceGraphic" in2="effect1_dropShadow_101_161" result="shape"/>
        </filter>
    </defs>
</svg>
